# xmcd
#
# Track frame offsets:
#	150
#	16377
#	32574
#	59972
#	90235
#
# Disc length: 1523 seconds
#
# Revision: 1
# Processed by: cddbd v1.5.1PL2 Copyright (c) Steve Scherf et al.
# Submitted via: dBpowerAMP V4.0
#
DISCID=3705f105
DTITLE=Gaudino feat. Crystal Waters - Destination unknown
DYEAR=2004
DGENRE=Dance
TTITLE0=Destination Unknown (Nari and Gaudino Radio Edit)
TTITLE1=Destination Unknown (J-Reverse Radio Mix)
TTITLE2=Destination Unknown (Nari and Gaudino Club Mix)
TTITLE3=Destination Unknown (J-Reverse Club Mix)
TTITLE4=Magic Destination
EXTD=
EXTT0=
EXTT1=
EXTT2=
EXTT3=
EXTT4=
PLAYORDER=
